<svg width="66" height="51" viewBox="0 0 66 51" fill="none" xmlns="http://www.w3.org/2000/svg">
<path d="M10.2773 46.6016C10.2773 46.5938 10.2773 46.582 10.2773 46.5664C10.2852 46.543 10.2891 46.5273 10.2891 46.5195C10.2891 46.332 10.1328 46.1641 9.82031 46.0156C9.51562 45.8594 9.13281 45.7305 8.67188 45.6289C8.21875 45.5273 7.72266 45.3945 7.18359 45.2305C6.64453 45.0586 6.14453 44.8789 5.68359 44.6914C5.23047 44.4961 4.84766 44.2266 4.53516 43.8828C4.23047 43.5312 4.07812 43.1289 4.07812 42.6758C4.07812 42.4648 4.11328 42.2383 4.18359 41.9961C4.26953 41.6992 4.41016 41.4023 4.60547 41.1055C4.80078 40.8008 5.08984 40.4883 5.47266 40.168C5.86328 39.8477 6.31641 39.5664 6.83203 39.3242C7.35547 39.082 8.01172 38.8828 8.80078 38.7266C9.59766 38.5703 10.4688 38.4922 11.4141 38.4922C11.9688 38.4922 12.4609 38.5234 12.8906 38.5859C13.3203 38.6406 13.6211 38.6914 13.793 38.7383C13.9648 38.7852 14.2227 38.8672 14.5664 38.9844L15.0117 39.125L13.5352 41.4805L13.125 41.375C12.2031 41.0938 11.2734 40.9531 10.3359 40.9531C9.75 40.9531 9.23828 41 8.80078 41.0938C8.37109 41.1797 8.05078 41.293 7.83984 41.4336C7.62891 41.5742 7.47656 41.6992 7.38281 41.8086C7.29688 41.9102 7.23828 42.0078 7.20703 42.1016C7.19922 42.125 7.19531 42.1562 7.19531 42.1953C7.19531 42.3906 7.41016 42.5742 7.83984 42.7461C8.26953 42.918 8.78906 43.0859 9.39844 43.25C10.0078 43.4141 10.6172 43.6016 11.2266 43.8125C11.8438 44.0234 12.3672 44.3242 12.7969 44.7148C13.2266 45.0977 13.4414 45.5469 13.4414 46.0625C13.4414 46.2422 13.4102 46.4453 13.3477 46.6719C13.2539 47 13.1133 47.3164 12.9258 47.6211C12.7461 47.918 12.4727 48.2305 12.1055 48.5586C11.7383 48.8867 11.3008 49.1719 10.793 49.4141C10.293 49.6484 9.65234 49.8438 8.87109 50C8.09766 50.1562 7.23438 50.2344 6.28125 50.2344C4.79688 50.2344 3.40625 49.9297 2.10938 49.3203L1.73438 49.1445L3.24609 46.8477L3.63281 47.0117C4.85938 47.5117 6.00781 47.7617 7.07812 47.7617C8.99219 47.7617 10.0586 47.375 10.2773 46.6016ZM20.6367 43.0742L27.457 38.1875H30.9375L23.4961 43.4844L27.7266 50H24.1875L20.3086 44.2344L18.6562 50H15.7734L20.8477 32.293H23.7305L20.6367 43.0742ZM34.7812 33.3477H38.0156L37.1133 36.5234H33.8789L34.7812 33.3477ZM33.5039 38.4219H36.3867L33.0703 50H30.1875L33.5039 38.4219ZM40.4766 38.7148H42.4922L42.6562 39.5117C44.4453 38.8242 46.0156 38.4805 47.3672 38.4805C49.5938 38.4805 50.707 39.3672 50.707 41.1406C50.707 41.7266 50.582 42.457 50.332 43.332L48.4219 50H45.5391L47.4258 43.4141C47.5273 43.0391 47.5781 42.7422 47.5781 42.5234C47.5781 41.625 46.9258 41.1758 45.6211 41.1758C44.7461 41.1758 43.6953 41.3828 42.4688 41.7969L40.125 50H37.2422L40.4766 38.7148ZM60.8555 46.6016C60.8555 46.5938 60.8555 46.582 60.8555 46.5664C60.8633 46.543 60.8672 46.5273 60.8672 46.5195C60.8672 46.332 60.7109 46.1641 60.3984 46.0156C60.0938 45.8594 59.7109 45.7305 59.25 45.6289C58.7969 45.5273 58.3008 45.3945 57.7617 45.2305C57.2227 45.0586 56.7227 44.8789 56.2617 44.6914C55.8086 44.4961 55.4258 44.2266 55.1133 43.8828C54.8086 43.5312 54.6562 43.1289 54.6562 42.6758C54.6562 42.4648 54.6914 42.2383 54.7617 41.9961C54.8477 41.6992 54.9883 41.4023 55.1836 41.1055C55.3789 40.8008 55.668 40.4883 56.0508 40.168C56.4414 39.8477 56.8945 39.5664 57.4102 39.3242C57.9336 39.082 58.5898 38.8828 59.3789 38.7266C60.1758 38.5703 61.0469 38.4922 61.9922 38.4922C62.5469 38.4922 63.0391 38.5234 63.4688 38.5859C63.8984 38.6406 64.1992 38.6914 64.3711 38.7383C64.543 38.7852 64.8008 38.8672 65.1445 38.9844L65.5898 39.125L64.1133 41.4805L63.7031 41.375C62.7812 41.0938 61.8516 40.9531 60.9141 40.9531C60.3281 40.9531 59.8164 41 59.3789 41.0938C58.9492 41.1797 58.6289 41.293 58.418 41.4336C58.207 41.5742 58.0547 41.6992 57.9609 41.8086C57.875 41.9102 57.8164 42.0078 57.7852 42.1016C57.7773 42.125 57.7734 42.1562 57.7734 42.1953C57.7734 42.3906 57.9883 42.5742 58.418 42.7461C58.8477 42.918 59.3672 43.0859 59.9766 43.25C60.5859 43.4141 61.1953 43.6016 61.8047 43.8125C62.4219 44.0234 62.9453 44.3242 63.375 44.7148C63.8047 45.0977 64.0195 45.5469 64.0195 46.0625C64.0195 46.2422 63.9883 46.4453 63.9258 46.6719C63.832 47 63.6914 47.3164 63.5039 47.6211C63.3242 47.918 63.0508 48.2305 62.6836 48.5586C62.3164 48.8867 61.8789 49.1719 61.3711 49.4141C60.8711 49.6484 60.2305 49.8438 59.4492 50C58.6758 50.1562 57.8125 50.2344 56.8594 50.2344C55.375 50.2344 53.9844 49.9297 52.6875 49.3203L52.3125 49.1445L53.8242 46.8477L54.2109 47.0117C55.4375 47.5117 56.5859 47.7617 57.6562 47.7617C59.5703 47.7617 60.6367 47.375 60.8555 46.6016Z" fill="#FBFBFB"/>
<path fill-rule="evenodd" clip-rule="evenodd" d="M14.5 8.18164H18.4336V29H14.5V8.18164ZM12.5 29V8.18164H8.55078V29H12.5ZM1.11719 0.490234H12.5V3.13281H1.11719V0.490234ZM1.11719 6.69922V4.17371H12.5V6.69922H1.11719ZM14.5 0.490234H25.8672V3.13281H14.5V0.490234ZM25.8672 4.17371V6.69922H14.5V4.17371H25.8672Z" fill="#4FD500"/>
<path fill-rule="evenodd" clip-rule="evenodd" d="M33.5 0.490234H29.5195L46.4277 29L48.4271 25.559L33.5 0.490234ZM35 0.490234L49.2243 24.1871L53.2812 17.2051V2.85352L47.2656 13.166L39.6172 0.490234H35ZM54.6777 0.490234V29H64.1738V0.490234H54.6777ZM29.498 3.13281V29H38.3711V18.0215L29.498 3.13281Z" fill="#4FD500"/>
</svg>
