<svg width="40" height="24" viewBox="0 0 40 24" fill="none" xmlns="http://www.w3.org/2000/svg">
<path d="M25.6359 5.94469C25.2399 4.94534 24.5779 4.06908 23.7275 3.41533C19.8863 0.292997 14.2097 2.92157 14.0028 7.74956C13.9888 8.06724 14.4411 8.14707 14.5373 7.84385C15.5757 4.55912 19.6425 3.75502 21.9256 5.8665C24.3373 8.0633 23.4119 12.4387 20.2321 12.4387C19.4093 12.4387 18.6159 12.1182 18.0533 11.5569C16.1375 9.69099 17.6236 6.36486 20.3507 6.54774C20.3576 6.54818 20.3648 6.54862 20.3709 6.54829C20.6875 6.54829 20.7484 6.09855 20.4471 6.01149C20.0174 5.85106 19.5629 5.7697 19.0958 5.7697C17.6332 5.7697 16.3808 6.59986 15.7506 7.71835C14.3808 10.1039 15.9074 13.9775 20.0054 14.0062C20.7246 14.0202 21.4249 13.9111 22.0918 13.6823C23.0214 13.3641 23.8609 12.813 24.519 12.0893C25.2295 11.313 25.7165 10.3554 25.9268 9.32053C26.1592 8.19284 26.0557 6.99375 25.6359 5.94469Z" fill="#FBFBFB"/>
<path d="M20.7938 9.69437C20.7735 9.58202 20.7511 9.46813 20.6405 9.48401C20.4969 9.50548 20.591 9.63513 20.4904 9.89805C20.355 10.2907 19.9015 10.5704 19.4566 10.469C19.028 10.3909 18.7002 9.95598 18.7408 9.51916C18.7457 9.46507 18.7105 9.41546 18.6577 9.40254C18.4416 9.34954 18.2503 10.2622 18.8294 10.7818C19.0926 11.0278 19.4706 11.1324 19.8118 11.0785C20.4157 10.9883 20.915 10.4117 20.7938 9.69437Z" fill="#FBFBFB"/>
<path d="M27.1632 4.97211C24.8451 -0.402863 17.5487 -1.39915 13.8861 3.22484C10.6223 7.30359 12.2554 13.512 17.2296 15.3842C23.6649 17.8344 29.9237 11.2726 27.1632 4.97211ZM17.067 14.5478C12.1779 12.3311 11.4394 5.69112 15.6817 2.44877C18.6824 0.136014 23.0564 0.594075 25.5031 3.60154C26.0883 4.31825 26.5318 5.15082 26.7977 6.03705C28.5723 11.9277 22.5228 17.039 17.067 14.5478Z" fill="#FBFBFB"/>
<path d="M20.1396 7.14771C19.054 7.14771 18.1562 7.91359 17.942 8.9298C17.9033 9.11333 18.1566 9.20805 18.2469 9.04226C18.3471 8.85829 18.4758 8.69918 18.6315 8.56755C19.4008 7.89552 20.6394 8.05003 21.2063 8.95291C21.4552 9.33957 21.5357 9.83892 21.4213 10.2899C21.3386 10.6276 21.1463 10.9407 20.8798 11.1721C20.8184 11.2255 20.8051 11.3157 20.8488 11.3843C20.8928 11.4536 20.9805 11.479 21.054 11.4463C21.7604 11.1332 22.2251 10.4881 22.3501 9.80782C22.6057 8.41687 21.5465 7.14771 20.1396 7.14771Z" fill="#FBFBFB"/>
<path d="M28.4349 18.7461C28.4349 18.6735 28.406 18.6038 28.3548 18.5525C28.3041 18.5016 28.2346 18.4722 28.161 18.4722C23.9104 18.4733 23.4623 18.3834 22.8554 18.8089C22.1907 19.2326 22.2897 20.1168 22.2912 20.922V20.9523C22.2937 22.3369 22.3262 23.1533 24.4296 23.1533C26.6111 23.1533 27.763 23.3082 28.2454 22.4586C28.4817 22.0182 28.4349 21.7833 28.4349 18.7461ZM25.4914 21.8756C24.513 21.8752 24.0499 21.9385 23.8946 21.628C23.7927 21.4103 23.7956 21.1666 23.7983 20.9264C23.8001 20.7808 23.7991 20.7826 23.7978 20.698C23.7896 20.1013 23.8745 20.0426 24.0855 19.7944C24.1285 19.8031 24.1732 19.8018 24.2163 19.7894C24.4255 19.7296 24.4306 19.7435 26.9168 19.7439C26.9168 21.9847 27.1285 21.8756 25.4914 21.8756Z" fill="#FBFBFB"/>
<path d="M12.0426 20.7385C12.2425 20.653 12.3763 20.5162 12.4317 20.4009C12.5923 20.0619 12.6774 19.0754 12.1045 18.734C11.554 18.4039 11.1252 18.4681 7.07457 18.473C6.92356 18.4731 6.80114 18.5957 6.80114 18.7468C6.80081 20.5339 6.80059 21.7263 6.80103 22.8778C6.80103 23.0289 6.92356 23.1514 7.07479 23.1514C11.649 23.1514 11.8288 23.2234 12.3074 22.8986C12.5553 22.7301 12.6684 22.4003 12.6911 22.134C12.7748 21.1335 12.4621 20.8674 12.0426 20.7385ZM11.0177 19.7987C11.0723 19.9787 11.0293 20.1345 10.9696 20.1974C10.8545 20.2872 10.7306 20.267 9.89456 20.2664C8.652 20.2664 9.48435 20.267 8.30662 20.2661C8.30684 20.0782 8.30662 19.9742 8.30651 19.6464C10.8274 19.647 10.9456 19.5889 11.0177 19.7987ZM11.0829 21.9094C10.9904 21.9688 10.8671 21.9757 10.7569 21.981C8.40079 21.9814 9.79393 21.9807 8.30695 21.9815C8.30629 21.8176 8.30673 21.7652 8.30651 21.3171C10.8903 21.317 11.0403 21.2658 11.1319 21.4707C11.2061 21.6702 11.1566 21.8462 11.0829 21.9094Z" fill="#FBFBFB"/>
<path d="M14.7116 18.4721C14.5305 18.4721 13.9359 18.4719 13.7547 18.4724C13.6037 18.4727 13.4814 18.5951 13.4814 18.7461V22.8776C13.4814 23.0288 13.604 23.1513 13.7552 23.1513H14.7115C14.8626 23.1513 14.9852 23.0288 14.9853 22.8777C14.9859 21.4999 14.9859 20.1232 14.9853 18.7458C14.9852 18.5946 14.8627 18.4721 14.7116 18.4721Z" fill="#FBFBFB"/>
<path d="M5.80369 18.7451C5.80303 18.5946 5.68093 18.4724 5.52982 18.4724C4.95469 18.4726 5.15958 18.4726 4.57186 18.4724C4.4203 18.4724 4.2981 18.5951 4.29799 18.7461C4.29591 22.0419 4.54788 21.8745 3.02422 21.8762C1.18321 21.8762 1.50242 22.1202 1.49891 18.746C1.49869 18.5948 1.37616 18.4725 1.22515 18.4725C1.22482 18.4725 0.277597 18.4727 0.273655 18.4727C0.122537 18.4727 0 18.5954 0 18.7465C0 19.6768 0.00010992 20.607 0.000766954 21.5423C0.00613273 21.842 0.0752302 22.3968 0.477773 22.7458C1.04545 23.2335 1.47384 23.1519 5.52204 23.1519C5.67338 23.1519 5.79624 23.0289 5.7958 22.8774C5.7923 21.5034 5.80938 20.1158 5.80369 18.7451Z" fill="#FBFBFB"/>
<path d="M33.9265 19.7466C34.0775 19.7466 34.2 19.624 34.2003 19.473L34.2 18.7466C34.1999 18.5955 34.0775 18.473 33.9265 18.4729C32.4985 18.4717 31.0706 18.4721 29.6432 18.4729C29.4922 18.473 29.3696 18.5955 29.3696 18.7466C29.369 20.1234 29.369 21.5007 29.3696 22.8778C29.3696 23.0289 29.4922 23.1514 29.6434 23.1514H30.5994C30.7505 23.1514 30.8729 23.0291 30.8731 22.8781C30.8738 22.4494 30.8728 22.1001 30.8735 21.6755C31.5363 21.6752 31.6524 21.6754 33.7747 21.675C33.9258 21.6749 34.0483 21.5524 34.0484 21.4013L34.0483 20.6704C34.0482 20.5192 33.9256 20.3967 33.7745 20.3967C31.8457 20.3965 32.9112 20.397 30.8733 20.3963C30.8728 20.1712 30.8734 19.9528 30.8728 19.747C31.8398 19.7462 32.8 19.7465 33.9265 19.7466Z" fill="#FBFBFB"/>
<path d="M39.7258 18.4728C38.1083 18.4719 36.4909 18.4719 34.8734 18.4728C34.7223 18.4729 34.5998 18.5954 34.5998 18.7465L34.5996 19.4699C34.5996 19.621 34.7221 19.7434 34.8733 19.7435L36.5502 19.7439V22.8776C36.5502 23.0288 36.6728 23.1513 36.824 23.1513H37.7751C37.9263 23.1513 38.0488 23.0288 38.0488 22.8776V19.7439L39.7256 19.7435C39.8767 19.7435 39.9991 19.6211 39.9993 19.4701C39.9997 19.2286 39.9997 18.9873 39.9993 18.7462C39.9992 18.5951 39.8768 18.4729 39.7258 18.4728Z" fill="#FBFBFB"/>
<path d="M20.5285 20.2238C17.3892 20.2147 17.4491 20.3635 17.4504 19.6462C20.2395 19.6508 20.1071 19.6085 20.1581 19.7329C20.2431 19.9394 20.4193 19.907 20.9497 19.907C21.2427 19.907 21.3563 19.9326 21.4629 19.8231C21.514 19.7704 21.542 19.6993 21.5402 19.6259C21.5336 19.3502 21.4929 19.0044 21.2289 18.7706C20.7613 18.376 20.3952 18.4762 16.2418 18.4718C16.0914 18.4717 15.9684 18.593 15.9676 18.7441C15.9603 20.1674 15.8666 20.7928 16.4487 21.1964C16.8563 21.4885 17.1088 21.4428 20.2066 21.4312C20.2181 22.0297 20.2571 21.9788 19.113 21.9808C17.4087 21.9837 17.4064 22.0056 17.3482 21.935C17.3358 21.9198 17.3253 21.8996 17.3182 21.8768C17.2824 21.7629 17.1771 21.6853 17.0578 21.6851C16.7481 21.6848 16.8976 21.6848 16.1958 21.6848C16.0454 21.6848 15.9232 21.8061 15.922 21.9566C15.9203 22.2094 15.9323 22.4993 16.0987 22.7359C16.3535 23.1066 16.8464 23.15 17.0485 23.1514C20.6574 23.151 19.892 23.1572 20.6282 23.1373C21.0262 23.0915 21.3285 22.9413 21.5103 22.6971C21.7301 22.4088 21.6994 22.0527 21.698 21.7066C21.6869 21.2464 21.8711 20.2238 20.5285 20.2238Z" fill="#FBFBFB"/>
</svg>
